<svg width="47" height="54" viewBox="0 0 47 54" fill="none" xmlns="http://www.w3.org/2000/svg">
<g filter="url(#filter0_d_7_139)">
<path d="M29.9697 38.4314C30.4357 38.4314 30.8135 38.1285 30.8135 37.7549C30.8135 37.3813 30.4357 37.0784 29.9697 37.0784C29.5037 37.0784 29.1259 37.3813 29.1259 37.7549C29.1259 38.1285 29.5037 38.4314 29.9697 38.4314Z" fill="#D2D2D2"/>
<path fill-rule="evenodd" clip-rule="evenodd" d="M38 22.9853L19 1L0 22.9853H2.12356V47H34.7513V22.9853H38ZM19 16.3333C20.5535 16.3333 21.8127 15.3238 21.8127 14.0784C21.8127 12.8331 20.5535 11.8235 19 11.8235C17.4465 11.8235 16.1873 12.8331 16.1873 14.0784C16.1873 15.3238 17.4465 16.3333 19 16.3333ZM8.64917 29.4343H10.2805V33.2902H8.64917V29.4343ZM10.8242 33.2902V29.4343H12.4557V33.2902H10.8242ZM8.64917 34.1471V38.8598H12.4557V34.1471H8.64917ZM31.9386 28.9608H20.1251V46.549H31.9386V28.9608Z" fill="#D2D2D2"/>
</g>
<defs>
<filter id="filter0_d_7_139" x="0" y="0" width="47" height="54" filterUnits="userSpaceOnUse" color-interpolation-filters="sRGB">
<feFlood flood-opacity="0" result="BackgroundImageFix"/>
<feColorMatrix in="SourceAlpha" type="matrix" values="0 0 0 0 0 0 0 0 0 0 0 0 0 0 0 0 0 0 127 0" result="hardAlpha"/>
<feOffset dx="5" dy="3"/>
<feGaussianBlur stdDeviation="2"/>
<feComposite in2="hardAlpha" operator="out"/>
<feColorMatrix type="matrix" values="0 0 0 0 0 0 0 0 0 0 0 0 0 0 0 0 0 0 0.25 0"/>
<feBlend mode="normal" in2="BackgroundImageFix" result="effect1_dropShadow_7_139"/>
<feBlend mode="normal" in="SourceGraphic" in2="effect1_dropShadow_7_139" result="shape"/>
</filter>
</defs>
</svg>
